<svg xmlns="http://www.w3.org/2000/svg" xmlns:xlink="http://www.w3.org/1999/xlink" viewBox="0 0 1080 1080" xmlns:v="https://vecta.io/nano"><defs><linearGradient id="A" x1="540" x2="540" y2="1080" gradientUnits="userSpaceOnUse"><stop offset="0" stop-color="#4ca1af"/><stop offset=".823" stop-color="#aed5db"/><stop offset="1" stop-color="#c4e0e5"/></linearGradient><path id="B" d="M104.714 1045.51a1.36 1.36 0 0 1-1.4-1.101 7.763 7.763 0 0 1-4.804 1.668 7.666 7.666 0 0 1-7.604-7.605v-9.24a1.434 1.434 0 0 1 2.868-.033v9.272a4.753 4.753 0 1 0 9.507 0v-9.24a1.33 1.33 0 0 1 1.4-1.468 1.364 1.364 0 0 1 1.435 1.435v14.9a1.328 1.328 0 0 1-1.401 1.4z"/><path id="C" d="M915.54 1046.357c-1.2 0-3.22-.42-3.92-1.58a.478.478 0 0 1-.08-.299.546.546 0 0 1 1.021-.32 3.815 3.815 0 0 0 2.98 1.061c1.94 0 2.92-.64 2.92-1.94 0-3.02-6.562-1.42-6.562-5.422 0-2.02 2.02-2.8 3.84-2.8a5.415 5.415 0 0 1 3.44 1.16.556.556 0 0 1 .18.379.647.647 0 0 1-.62.6.527.527 0 0 1-.38-.16 4.001 4.001 0 0 0-2.62-.84c-1.76 0-2.7.682-2.7 1.66 0 2.8 6.562 1.32 6.562 5.422 0 2.28-2 3.08-4.06 3.08z"/><path id="D" d="M926.26 1046.318c-3.22 0-5.02-2.64-5.02-5.662 0-3 1.8-5.64 5.02-5.64s5.02 2.64 5.02 5.64c0 3.02-1.8 5.662-5.02 5.662zm0-10.162c-2.36 0-3.88 1.9-3.88 4.5s1.52 4.52 3.88 4.52c2.38 0 3.88-1.92 3.88-4.52s-1.5-4.5-3.88-4.5z"/><path id="E" d="M950 1036.336a3.418 3.418 0 0 0-3.421 3.42v5.662a.57.57 0 0 1-1.141 0v-9.502a.57.57 0 0 1 1.141 0v.82a4.566 4.566 0 0 1 3.421-1.541.57.57 0 1 1 0 1.141z"/><path id="F" d="M971.76 1041.236h-8.302c.18 2.28 1.66 3.94 3.84 3.94a3.615 3.615 0 0 0 2.94-1.381.526.526 0 0 1 .479-.279.611.611 0 0 1 .62.541c0 .18 0 .22-.38.658a4.718 4.718 0 0 1-3.66 1.602c-3.22 0-5.02-2.64-5.02-5.662 0-3 1.8-5.64 5.02-5.64s5.02 2.66 5.02 5.64a.605.605 0 0 1-.56.58zm-4.46-5.08c-2.4 0-3.66 1.84-3.84 3.94h7.7c-.18-2.28-1.66-3.94-3.86-3.94z"/><path id="G" d="M54.516 402.813h-9.28a.968.968 0 0 1-.928-.896v-20.99a.792.792 0 0 1 .832-.896h8.67a5.785 5.785 0 0 1 5.76 5.695 5.555 5.555 0 0 1-2.271 4.576 6.558 6.558 0 0 1-2.784 12.511zm-.704-21h-7.68v7.87h7.68a3.936 3.936 0 1 0 0-7.871zm.704 9.695h-8.384v9.47h8.384a4.735 4.735 0 1 0 0-9.471z"/><path id="H" d="M73.17 403.005a3.354 3.354 0 0 1-3.167-3.393v-18.687a.912.912 0 0 1 1.823 0v18.687c0 2.048 2.272.864 2.272 2.305a1.032 1.032 0 0 1-.929 1.088z"/><path id="I" d="M137.04 402.813a.874.874 0 0 1-.896-.896v-17.375l-7.615 14.143a.844.844 0 0 1-.736.576.989.989 0 0 1-.863-.576l-7.584-14.143v17.375a.912.912 0 0 1-1.823 0v-20.99a.928.928 0 0 1 .96-.896.836.836 0 0 1 .768.448l8.48 15.84 8.512-15.84a.867.867 0 0 1 .768-.448.928.928 0 0 1 .96.896v20.99a.9.9 0 0 1-.928.896z"/><path id="J" d="M156.305 395.23h-13.28c.288 3.647 2.656 6.303 6.144 6.303a5.784 5.784 0 0 0 4.704-2.207.838.838 0 0 1 .768-.448.978.978 0 0 1 .992.863c0 .288 0 .353-.608 1.057a7.554 7.554 0 0 1-5.855 2.56c-5.15 0-8.03-4.224-8.03-9.056 0-4.8 2.88-9.023 8.03-9.023s8.03 4.256 8.03 9.023a.968.968 0 0 1-.896.929zm-7.136-8.128c-3.84 0-5.855 2.944-6.144 6.304h12.32c-.288-3.647-2.656-6.304-6.176-6.304z"/><path id="K" d="M167.665 382.75a1.824 1.824 0 1 1 1.824-1.824 1.803 1.803 0 0 1-1.824 1.824zm0 20.063a.879.879 0 0 1-.928-.896v-15.2a.881.881 0 0 1 .928-.896.871.871 0 0 1 .896.896v15.2a.856.856 0 0 1-.896.896z"/><path id="L" d="M226.607 402.813h-.03a3.312 3.312 0 0 1-3.168-2.496 7.261 7.261 0 0 1-6.208 3.04c-5.216 0-8.03-4.288-8.03-9.056 0-4.83 2.88-9.023 8.03-9.023a7.317 7.317 0 0 1 6.208 3.008v-1.567a.902.902 0 0 1 .928-.896.873.873 0 0 1 .896.896v12.895c0 2.048 2.305.77 2.305 2.305a.88.88 0 0 1-.929.896zm-9.407-15.71c-3.775 0-6.207 3.04-6.207 7.2s2.432 7.23 6.207 7.23c3.808 0 6.208-3.07 6.208-7.23s-2.4-7.2-6.208-7.2z"/><path id="M" d="M301.423 395.23h-13.28c.288 3.647 2.656 6.303 6.144 6.303a5.784 5.784 0 0 0 4.704-2.207.838.838 0 0 1 .768-.448.978.978 0 0 1 .992.863c0 .288 0 .353-.608 1.057a7.554 7.554 0 0 1-5.855 2.56c-5.15 0-8.03-4.224-8.03-9.056 0-4.8 2.88-9.023 8.03-9.023s8.03 4.256 8.03 9.023a.968.968 0 0 1-.895.929zm-7.136-8.128c-3.84 0-5.855 2.944-6.144 6.304h12.32c-.288-3.647-2.656-6.304-6.176-6.304z"/><path id="N" d="M310.83 403.42c-1.92 0-5.152-.673-6.272-2.528a.772.772 0 0 1-.128-.479.873.873 0 0 1 1.632-.513c1.152 1.408 3.2 1.696 4.77 1.696 3.104 0 4.67-1.024 4.67-3.104 0-4.832-10.495-2.272-10.495-8.672 0-3.23 3.232-4.48 6.144-4.48 1.664 0 4.224.576 5.504 1.855a.899.899 0 0 1 .288.608 1.038 1.038 0 0 1-.992.96.851.851 0 0 1-.608-.256 6.394 6.394 0 0 0-4.191-1.344c-2.815 0-4.32 1.088-4.32 2.655 0 4.48 10.495 2.112 10.495 8.672 0 3.647-3.2 4.928-6.495 4.928z"/><path id="O" d="M75.958 534.033q-.062.615.554.554h17.965q.677-.123.554.554v3.322c.082.452-.103.655-.554.615h-22.58c-.452.04-.637-.163-.554-.615v-3.384q.308-8.306 4.8-12.612a114.764 114.764 0 0 1 8.921-7.752 11.628 11.628 0 0 0 4.86-8.859 8.3 8.3 0 0 0-1.846-5.414 6.286 6.286 0 0 0-4.983-2.215 6.839 6.839 0 0 0-5.414 2.338 8.881 8.881 0 0 0-2.03 5.537q.06.863-.677.738H71.65q-.678.125-.554-.554a13.573 13.573 0 0 1 3.507-8.675 11.2 11.2 0 0 1 8.552-3.753 11.066 11.066 0 0 1 8.183 3.384 11.966 11.966 0 0 1 3.322 8.429q-.37 6.706-4.8 10.397l-8.92 7.444q-4.49 3.69-4.983 10.52h0z"/><path id="P" d="M98.13 579.078h-.03a3.312 3.312 0 0 1-3.168-2.496 7.261 7.261 0 0 1-6.208 3.04c-5.216 0-8.03-4.288-8.03-9.056 0-4.83 2.88-9.023 8.03-9.023a7.317 7.317 0 0 1 6.208 3.008v-1.567a.902.902 0 0 1 .928-.896.873.873 0 0 1 .896.896v12.895c0 2.048 2.305.77 2.305 2.305a.88.88 0 0 1-.929.895zm-9.407-15.71c-3.775 0-6.207 3.04-6.207 7.2s2.432 7.23 6.207 7.23c3.808 0 6.208-3.07 6.208-7.23s-2.4-7.2-6.208-7.2z"/><path id="Q" d="M205.873 563.655a5.469 5.469 0 0 0-5.472 5.472v9.056a.912.912 0 0 1-1.823 0v-15.2a.912.912 0 0 1 1.823 0v1.312a7.309 7.309 0 0 1 5.472-2.464.912.912 0 1 1 0 1.824z"/><path id="R" d="M220.465 563.655l-5.504 5.504 5.44 8.51a.903.903 0 0 1 .192.513.972.972 0 0 1-.96.863.903.903 0 0 1-.768-.416l-5.248-8.16-3.296 3.328v4.384a.912.912 0 0 1-1.823 0v-20.99a.912.912 0 0 1 1.823 0v14.016l8.832-8.832a.897.897 0 0 1 .672-.288.923.923 0 0 1 .928.896.899.899 0 0 1-.288.672z"/><path id="S" d="M278.768 577.2a7.432 7.432 0 0 1-5.728 2.432c-5.15 0-8.03-4.224-8.03-9.056 0-4.8 2.88-9.023 8.03-9.023a7.429 7.429 0 0 1 5.728 2.433.845.845 0 0 1 .256.607 1.002 1.002 0 0 1-.928.96.941.941 0 0 1-.672-.32 5.641 5.641 0 0 0-4.384-1.855c-3.775 0-6.207 3.04-6.207 7.2s2.432 7.23 6.207 7.23a5.747 5.747 0 0 0 4.384-1.855.908.908 0 0 1 1.6.608.916.916 0 0 1-.256.64z"/><path id="T" d="M333.392 579.622a7.261 7.261 0 0 1-6.208-3.04v1.6a.912.912 0 0 1-1.823 0v-20.99a.912.912 0 0 1 1.823 0v7.36a7.317 7.317 0 0 1 6.208-3.008c5.15 0 8.03 4.225 8.03 9.023 0 4.832-2.88 9.056-8.03 9.056zm0-16.255c-3.808 0-6.208 3.04-6.208 7.2s2.4 7.23 6.208 7.23 6.207-3.07 6.207-7.23-2.4-7.2-6.207-7.2z"/><path id="U" d="M127.298 66.68h-22.2c.84 5.64 4.44 9.24 9.72 9.24a9.005 9.005 0 0 0 7.14-3.12 2.483 2.483 0 0 1 1.86-.96 2.8 2.8 0 0 1 2.7 2.64c0 .72-.18 1.26-1.44 2.52a14.622 14.622 0 0 1-10.26 4.02c-9.66 0-15.06-7.98-15.06-16.98 0-8.94 5.4-16.92 15.06-16.92 9.78 0 15 7.98 15 16.92a2.558 2.558 0 0 1-2.52 2.64zm-12.48-14.46c-5.64 0-8.94 4.14-9.72 9.3h19.44c-.84-5.76-4.44-9.3-9.72-9.3z"/><path id="V" d="M285.696 81.02c-9.66 0-15.06-7.92-15.06-16.98 0-9 5.4-16.92 15.06-16.92s15.06 7.92 15.06 16.92c0 9.06-5.4 16.98-15.06 16.98zm0-28.8c-6 0-9.9 4.68-9.9 11.82 0 7.2 3.9 11.88 9.9 11.88 6.06 0 9.9-4.68 9.9-11.88 0-7.14-3.84-11.82-9.9-11.82z"/><path id="W" d="M345.995 80.12a6.122 6.122 0 0 1-6-6.12V39.862a2.58 2.58 0 0 1 5.16-.06V74a.947.947 0 0 0 .84 1.02 2.55 2.55 0 1 1 0 5.1z"/><path id="X" d="M576.87 66.68h-22.2c.84 5.64 4.44 9.24 9.72 9.24a9.007 9.007 0 0 0 7.14-3.12 2.483 2.483 0 0 1 1.859-.96 2.8 2.8 0 0 1 2.7 2.64c0 .72-.18 1.26-1.44 2.52a14.618 14.618 0 0 1-10.259 4.02c-9.66 0-15.06-7.98-15.06-16.98 0-8.94 5.4-16.92 15.06-16.92 9.78 0 15 7.98 15 16.92a2.558 2.558 0 0 1-2.52 2.64zm-12.48-14.46c-5.64 0-8.94 4.14-9.72 9.3h19.438c-.84-5.76-4.44-9.3-9.72-9.3z"/><path id="Y" d="M695.127 43.282a4.32 4.32 0 1 1 4.319-4.319 4.302 4.302 0 0 1-4.319 4.319zm0 36.72a2.52 2.52 0 0 1-2.64-2.52v-26.76a2.533 2.533 0 0 1 2.64-2.58 2.472 2.472 0 0 1 2.52 2.58v26.76a2.421 2.421 0 0 1-2.52 2.52z"/><path id="Z" d="M960.5 80.06a4.302 4.302 0 0 1-4.32-4.32 4.322 4.322 0 0 1 8.64 0 4.302 4.302 0 0 1-4.319 4.32z"/><path id="a" d="M103.156 163.296c.04.452.225.533.554.246q1.97-2.644 7.444-3.138a11.166 11.166 0 0 1 8.675 3.876 14.44 14.44 0 0 1 3.261 9.536 14.886 14.886 0 0 1-3.384 9.659 11.658 11.658 0 0 1-17.842.062 15.256 15.256 0 0 1-3.322-9.905v-19.318a13.663 13.663 0 0 1 3.322-9.229 11.707 11.707 0 0 1 9.044-3.876 12.475 12.475 0 0 1 7.937 2.707 11.217 11.217 0 0 1 3.938 7.26q.123.554-.615.554h-3.63q-.615 0-.615-.738a8.064 8.064 0 0 0-2.153-3.814 7.079 7.079 0 0 0-4.922-1.6 7.182 7.182 0 0 0-5.66 2.461 9.534 9.534 0 0 0-2.03 6.275zm0 10.644a10.653 10.653 0 0 0 1.969 6.645 7.17 7.17 0 0 0 11.32 0 11.603 11.603 0 0 0 1.969-6.768 11.183 11.183 0 0 0-1.907-6.583 6.735 6.735 0 0 0-5.599-2.584q-7.692.494-7.752 9.3h0z"/><path id="b" d="M192.203 205.438h-.992a1.415 1.415 0 0 0-1.408 1.376v2.623h2.4a.872.872 0 0 1 .896.896.899.899 0 0 1-.896.928h-2.4v14.27a.873.873 0 0 1-.896.896.855.855 0 0 1-.896-.896v-14.27h-2.207a.912.912 0 0 1 0-1.824h2.207v-2.623a3.176 3.176 0 0 1 3.168-3.168h1.024a.908.908 0 0 1 .928.928.858.858 0 0 1-.928.864z"/><path id="c" d="M91.794 756.72c-5.15 0-8.03-4.224-8.03-9.056 0-4.8 2.88-9.023 8.03-9.023s8.03 4.225 8.03 9.023c0 4.832-2.88 9.056-8.03 9.056zm0-16.255c-3.775 0-6.207 3.04-6.207 7.2s2.432 7.23 6.207 7.23c3.808 0 6.208-3.07 6.208-7.23s-2.4-7.2-6.208-7.2z"/><path id="d" d="M120.2 763.472c-2.72 0-6.56-1.024-6.56-2.177a1.015 1.015 0 0 1 .928-1.023 11.531 11.531 0 0 1 1.696.768 11.984 11.984 0 0 0 3.936.608c4.096 0 6.208-2.016 6.208-5.95v-2.24a7.639 7.639 0 0 1-6.208 2.72c-5.056 0-8.03-3.584-8.03-8.512 0-4.8 2.88-9.023 8.03-9.023a7.317 7.317 0 0 1 6.208 3.008v-1.535a.912.912 0 0 1 1.823 0v15.583c0 5.087-3.04 7.775-8.03 7.775zm0-23.007c-3.775 0-6.207 3.04-6.207 7.2 0 4.128 2.27 6.688 6.207 6.688s6.208-2.56 6.208-6.687c0-4.16-2.4-7.2-6.208-7.2z"/></defs><rect width="1080" height="1080" rx="40" fill="url(#A)"/><path d="M1045.936 868.002v118.943H34V827.97h971.793a40.087 40.087 0 0 1 40.143 40.031z" fill="#73a2c6" opacity=".7"/><path d="M1012.54 691.962v118.345H34V651.333h937.795a40.686 40.686 0 0 1 40.743 40.629z" fill="#5d8abd" opacity=".9"/><path d="M413.06 515.437V633.67H34V474.695h338.202a40.8 40.8 0 0 1 40.857 40.743z" fill="#4771b2" opacity=".8"/><path d="M341.255 338.497V457.03H34V298.056h266.7a40.497 40.497 0 0 1 40.554 40.44z" fill="#2e59a8" opacity=".95"/><path d="M244.403 161.997v118.395H34V121.418H203.7a40.636 40.636 0 0 1 40.693 40.58z" fill="#00429d"/><g fill="#73a2c6"><path d="M42.328 1046.045a7.892 7.892 0 0 1-5.503-2.002 1.364 1.364 0 0 1-1.468 1.401 1.346 1.346 0 0 1-1.401-1.401v-20.88a1.435 1.435 0 0 1 2.869-.033v6.238a7.4 7.4 0 0 1 5.503-2.169c5.37 0 8.373 4.403 8.373 9.406 0 5.037-3.002 9.44-8.373 9.44zm0-16c-3.335 0-5.503 2.602-5.503 6.57 0 4.003 2.168 6.604 5.503 6.604s5.504-2.602 5.504-6.604c0-3.97-2.168-6.57-5.504-6.57zm25.555 8.037h-12.34c.467 3.136 2.468 5.137 5.403 5.137a5.003 5.003 0 0 0 3.969-1.734 1.383 1.383 0 0 1 1.034-.533 1.556 1.556 0 0 1 1.501 1.468c0 .4-.1.7-.8 1.4a8.129 8.129 0 0 1-5.704 2.235c-5.37 0-8.372-4.437-8.372-9.44 0-4.97 3.002-9.406 8.372-9.406 5.437 0 8.34 4.437 8.34 9.406a1.422 1.422 0 0 1-1.401 1.468zm-6.937-8.038c-3.136 0-4.97 2.3-5.403 5.17H66.35c-.467-3.202-2.468-5.17-5.403-5.17zM88 1045.478a3.247 3.247 0 0 1-2.969-1.901 7.642 7.642 0 0 1-5.87 2.469c-5.437 0-8.372-4.47-8.372-9.44s3.002-9.406 8.372-9.406a7.369 7.369 0 0 1 5.504 2.202v-.134a1.376 1.376 0 0 1 1.4-1.501 1.341 1.341 0 0 1 1.468 1.401v12.875a.54.54 0 0 0 .467.601 1.418 1.418 0 1 1 0 2.835zm-8.84-15.443c-3.336 0-5.504 2.602-5.504 6.57 0 4.003 2.168 6.604 5.504 6.604 3.37 0 5.504-2.602 5.504-6.604 0-3.97-2.135-6.57-5.504-6.57z"/><use xlink:href="#B"/><path d="M115.158 1045.478h-.567c-3.17 0-4.37-1.668-4.37-4.403V1030.6h-1a1.418 1.418 0 1 1-.033-2.835h1v-4.637a1.355 1.355 0 0 1 1.435-1.4 1.328 1.328 0 0 1 1.401 1.4v4.637h2.135a1.383 1.383 0 0 1 1.4 1.401 1.356 1.356 0 0 1-1.4 1.434h-2.135v10.774c0 .934.333 1.268 1.268 1.268h.833a1.376 1.376 0 0 1 1.435 1.4 1.357 1.357 0 0 1-1.4 1.435zm4.604-20.415a2.401 2.401 0 1 1 2.402-2.401 2.392 2.392 0 0 1-2.402 2.401zm0 20.414a1.4 1.4 0 0 1-1.467-1.401V1029.2a1.408 1.408 0 0 1 1.467-1.435 1.374 1.374 0 0 1 1.401 1.435v14.876a1.346 1.346 0 0 1-1.401 1.401zm10.376-14.877h-1.5v13.442a1.364 1.364 0 0 1-1.468 1.401 1.346 1.346 0 0 1-1.401-1.401V1030.6h-1.37a1.418 1.418 0 0 1 0-2.835h1.367v-2.27a3.801 3.801 0 0 1 3.836-3.769 1.418 1.418 0 1 1 0 2.835.934.934 0 0 0-.967.9v2.302h1.5a1.418 1.418 0 1 1 0 2.835z"/><use xlink:href="#B" x="42.068"/><path d="M154.725 1045.544a3.403 3.403 0 0 1-3.336-3.402v-18.98a1.435 1.435 0 0 1 2.869-.033v19.013a.527.527 0 0 0 .467.567 1.418 1.418 0 1 1 0 2.835zm15.37-.066v-1.264c1.886-.237 2.046-.437 2.046-3.157v-6.7c0-2.8-1.248-4.017-3.064-4.017a5.597 5.597 0 0 0-3.47 1.493v9.476c0 2.527.187 2.658 2.06 2.896v1.264h-8.968v-1.264c2.254-.33 2.5-.4 2.5-3v-8.2c0-2.446-.303-2.565-2.185-2.922v-1.184a34.101 34.101 0 0 0 6.653-1.533l-.052 2.95 2.6-1.745a5.659 5.659 0 0 1 3.159-1.086c3.194 0 5.2 2.338 5.2 6.3v7.5c0 2.54.237 2.657 2.277 2.92v1.264zm23.9-3.703c-2.458 3.427-5.488 4.178-7.014 4.178-5.142 0-8.124-3.936-8.124-8.594a10.333 10.333 0 0 1 2.832-7.062 8.602 8.602 0 0 1 6.082-2.814 6.386 6.386 0 0 1 6.37 6.347c-.014.715-.08 1.277-.612 1.4-.767.184-6.17.5-10.318.647.062 4.587 2.717 6.74 5.556 6.74a6.776 6.776 0 0 0 4.543-1.866zm-7.07-12.7c-1.667 0-3.167 1.807-3.516 4.963l5.486-.118c.6-.026.848-.146.848-.792.04-2.022-1.037-4.053-2.818-4.053zm34.284.145c-1.943.343-2.248.624-3.105 2.765-1.33 3.462-3.102 8.53-4.934 13.94h-1.512l-4.65-11.46-4.55 11.46h-1.472l-4.685-14.192c-.687-1.985-.94-2.274-2.855-2.512v-1.25h9.397v1.25c-2.325.345-2.535.672-2.058 2.133l2.52 8.214c1.507-3.68 2.988-7.62 4.327-11.424h1.456c1.4 3.76 2.986 7.702 4.573 11.568.742-2.107 2.062-5.964 2.557-8.108.412-1.674-.008-2.078-2.753-2.383v-1.25h7.742zm9.4 3.746c-.92-2.606-2.155-3.984-4.2-3.984a2.166 2.166 0 0 0-2.225 2.266c0 1.497 1.046 2.264 3.16 3.216 3.278 1.496 5.3 2.787 5.3 5.736 0 3.85-3.6 5.764-6.945 5.764a12.073 12.073 0 0 1-4.92-1.161l-.662-4.892 1.252-.224c.8 2.5 2.33 4.75 4.976 4.75a2.231 2.231 0 0 0 2.438-2.281c0-1.423-.76-2.333-3.092-3.467-2.67-1.295-5.107-2.64-5.107-5.775 0-3.046 2.533-5.42 6.565-5.42a18.751 18.751 0 0 1 4.112.567l.62 4.577z"/><use xlink:href="#C"/><use xlink:href="#D"/><path d="M942.04 1045.98a.563.563 0 0 1-.58-.561v-.64a4.443 4.443 0 0 1-3.421 1.541 4.61 4.61 0 0 1-4.561-4.561v-5.842a.57.57 0 0 1 1.14 0v5.842a3.421 3.421 0 0 0 6.842 0v-5.842a.57.57 0 0 1 1.141 0v9.502a.559.559 0 0 1-.561.561z"/><use xlink:href="#E"/><path d="M960.18 1044.797a4.646 4.646 0 0 1-3.58 1.521c-3.22 0-5.02-2.64-5.02-5.662 0-3 1.8-5.64 5.02-5.64a4.651 4.651 0 0 1 3.58 1.52.534.534 0 0 1 .16.381.626.626 0 0 1-.58.6.586.586 0 0 1-.42-.199 3.526 3.526 0 0 0-2.74-1.16c-2.36 0-3.88 1.9-3.88 4.5s1.52 4.52 3.88 4.52a3.592 3.592 0 0 0 2.74-1.16.586.586 0 0 1 .42-.199.594.594 0 0 1 .58.58.569.569 0 0 1-.16.398z"/><use xlink:href="#F"/><path d="M975.74 1039.416a1.14 1.14 0 1 1 0-2.279 1.14 1.14 0 0 1 0 2.279zm0 6.563a1.141 1.141 0 1 1 0-2.281 1.141 1.141 0 0 1 0 2.281zm18.2-13.124h-8.32v4.92h6.1a.551.551 0 0 1 .58.561.561.561 0 0 1-.56.58h-6.12v6.502a.57.57 0 0 1-1.141 0v-13.123a.59.59 0 0 1 .58-.561h8.882a.561.561 0 1 1 0 1.121z"/><use xlink:href="#D" x="72.82"/><use xlink:href="#E" x="61.04"/><path d="M1018.098 1046.318a4.54 4.54 0 0 1-3.881-1.9v1a.57.57 0 0 1-1.141 0v-13.123a.57.57 0 0 1 1.141 0v4.602a4.574 4.574 0 0 1 3.881-1.881c3.22 0 5.02 2.64 5.02 5.64 0 3.02-1.8 5.662-5.02 5.662zm0-10.162c-2.38 0-3.88 1.9-3.88 4.5s1.5 4.52 3.88 4.52 3.88-1.92 3.88-4.52-1.5-4.5-3.88-4.5z"/><use xlink:href="#F" x="62.76"/><use xlink:href="#C" x="125.257"/></g><g fill="#fff"><path d="M52.574 319.13l.738-.554h4.368c.45 0 .655.206.615.615v38.883c-.083.452.102.656.554.615h7.998q.677-.123.554.554v3.015c.04.452-.145.636-.554.554h-21.78c-.452.082-.656-.102-.615-.554v-3.015c-.04-.45.163-.636.615-.554h8.306c.4.04.594-.163.554-.615v-32.792q-.062-.738-.615-.123a27.002 27.002 0 0 1-8.429 4.922q-.494.246-.554-.308v-3.138a.596.596 0 0 1 .431-.554 15.465 15.465 0 0 0 7.813-6.952h0zm37.196 2.093a12.111 12.111 0 0 1 3.322 8.429q-.37 7.63-5.3 10.1c-.206.164-.185.37.062.615q6.1 3.507 6.03 10.828a12.863 12.863 0 0 1-3.507 9.105 12.195 12.195 0 0 1-8.675 3.568 11.975 11.975 0 0 1-8.613-3.568 12.854 12.854 0 0 1-3.507-9.105q-.062-7.32 6.03-10.828.37-.37.062-.615-4.923-2.46-5.3-10.1a12.102 12.102 0 0 1 3.322-8.429 10.944 10.944 0 0 1 16.058 0zm-8.06 38.514a7.319 7.319 0 0 0 5.599-2.399 8.651 8.651 0 0 0 2.092-6.091 10.025 10.025 0 0 0-2.03-6.583 7.424 7.424 0 0 0-11.259 0 10.025 10.025 0 0 0-2.03 6.583 8.647 8.647 0 0 0 2.092 6.091 7.245 7.245 0 0 0 5.537 2.399h0zm6.9-30.023a8.51 8.51 0 0 0-1.846-5.537 6.612 6.612 0 0 0-10.09 0 8.696 8.696 0 0 0-1.784 5.537q.185 7.752 6.83 8.183 6.705-.43 6.9-8.183zm28.062 18.2c-.04.452.144.656.554.615h3.753q.677-.123.554.554v3.015c.082.452-.103.656-.554.615h-3.753q-.615-.123-.554.554v8.86q.123.8-.554.677h-3.138q-.615.123-.554-.677v-8.86q.123-.677-.554-.554H97.6c-.4.04-.595-.163-.554-.615v-3.876l.246-1.046 13.104-28.116a.811.811 0 0 1 .861-.492h4.86c.45-.04.636.164.554.615zm-15.442 0q-.37.678.37.615h10.274c.45.04.636-.163.554-.615v-23q-.125-.738-.492-.123z"/><use xlink:href="#G"/><path d="M65.204 382.75a1.824 1.824 0 1 1 1.824-1.824 1.803 1.803 0 0 1-1.824 1.824zm0 20.063a.879.879 0 0 1-.928-.896v-15.2a.881.881 0 0 1 .928-.896.871.871 0 0 1 .895.896v15.2a.856.856 0 0 1-.895.896z"/><use xlink:href="#H"/><use xlink:href="#H" x="6.37"/><path d="M106.834 395.58l-3.2 3.23 2.977 2.977a.896.896 0 0 1 .287.672.922.922 0 0 1-.895.928.899.899 0 0 1-.672-.288l-2.976-3.008-1.088 1.088a7.013 7.013 0 0 1-5.023 2.176 6.84 6.84 0 0 1-3.424-12.767l-.608-.608a6.029 6.029 0 0 1 4-10.527c3.743 0 6.175 3.552 6.175 4.256a.95.95 0 0 1-.959.896c-.93 0-2.112-3.327-5.216-3.327a4.207 4.207 0 0 0-4.192 4.191 4.045 4.045 0 0 0 1.44 3.168l8.896 8.896 3.2-3.232a1.042 1.042 0 0 1 .672-.288.969.969 0 0 1 .896.929.836.836 0 0 1-.288.64zm-12.67-3.647a5.025 5.025 0 0 0 2.048 9.599 4.853 4.853 0 0 0 3.52-1.407l1.344-1.376z"/><use xlink:href="#I"/><use xlink:href="#J"/><use xlink:href="#H" x="90.367"/><use xlink:href="#K"/><path d="M186.16 402.813a.9.9 0 0 1-.928-.896v-9.344a5.472 5.472 0 1 0-10.943 0v9.344a.912.912 0 0 1-1.823 0v-15.2a.912.912 0 0 1 1.823 0v1.023a7.3 7.3 0 0 1 12.768 4.832v9.344a.893.893 0 0 1-.896.896zm18.944 0a.899.899 0 0 1-.928-.896v-1.6a7.261 7.261 0 0 1-6.208 3.04c-5.15 0-8.03-4.224-8.03-9.056 0-4.8 2.88-9.023 8.03-9.023a7.317 7.317 0 0 1 6.208 3.008v-7.36a.912.912 0 0 1 1.823 0v21a.892.892 0 0 1-.895.896zm-7.136-15.7c-3.775 0-6.207 3.04-6.207 7.2s2.432 7.23 6.207 7.23c3.808 0 6.208-3.07 6.208-7.23s-2.4-7.2-6.208-7.2z"/><use xlink:href="#L"/><path d="M245.775 403.356c-7.04 0-9.31-5.92-9.31-11.936 0-5.983 2.27-11.967 9.31-11.967a8.149 8.149 0 0 1 7.104 3.488.646.646 0 0 1 .192.512.959.959 0 0 1-.992.896c-.447 0-.704-.384-1.056-.832a6.208 6.208 0 0 0-5.248-2.239c-4.83 0-7.487 3.712-7.487 10.143 0 4.864 1.536 10.11 7.487 10.11 5.056 0 7.264-3.87 7.488-9.183h-3.904a.916.916 0 0 1-.96-.929.9.9 0 0 1 .896-.928h4.863a.89.89 0 0 1 .928.928c0 6.24-2.464 11.936-9.31 11.936z"/><use xlink:href="#L" x="48.16"/><path d="M283.823 402.813h-.992c-2.527 0-3.775-1.248-3.775-3.744v-11.423h-1.632a.912.912 0 0 1 0-1.824h1.632v-4.896a.899.899 0 0 1 .928-.896.873.873 0 0 1 .896.896v4.896h2.944a.912.912 0 0 1 0 1.824h-2.944v11.423c0 1.568.448 1.92 1.952 1.92h.992a.912.912 0 0 1 0 1.824z"/><use xlink:href="#M"/><use xlink:href="#N"/></g><g opacity=".9" fill="#fff"><path d="M48.268 534.033q-.062.615.554.554h17.965q.677-.123.554.554v3.322c.082.452-.103.655-.554.615h-22.58c-.452.04-.637-.163-.554-.615v-3.384q.308-8.306 4.8-12.612a114.764 114.764 0 0 1 8.921-7.752 11.628 11.628 0 0 0 4.86-8.859 8.3 8.3 0 0 0-1.846-5.414 6.286 6.286 0 0 0-4.983-2.215 6.839 6.839 0 0 0-5.414 2.338 8.881 8.881 0 0 0-2.03 5.537q.06.863-.677.738H43.96q-.678.125-.554-.554a13.573 13.573 0 0 1 3.507-8.675 11.2 11.2 0 0 1 8.552-3.753 11.066 11.066 0 0 1 8.183 3.384 11.966 11.966 0 0 1 3.322 8.429q-.37 6.706-4.8 10.397l-8.92 7.444q-4.49 3.69-4.983 10.52h0z"/><use xlink:href="#O"/><path d="M121.92 500.8a80.05 80.05 0 0 0-8.244 18.519 81.248 81.248 0 0 0-3.076 19.318q.123.798-.615.677h-3.507q-.678-.062-.554-.677a79.12 79.12 0 0 1 3.445-19.564 81.296 81.296 0 0 1 8.429-18.949q.554-.86-.062-.86h-18.95c-.452.083-.637-.123-.554-.615v-3.26q-.125-.677.554-.554h22.825q.677-.123.554.554v4.553l-.246.86zm-61.7 75.325a8.196 8.196 0 0 1-7.136 3.487c-6.88 0-9.3-5.695-9.3-11.936 0-6.27 2.432-11.967 9.3-11.967a8.103 8.103 0 0 1 7.104 3.488.646.646 0 0 1 .192.512.959.959 0 0 1-.992.895.849.849 0 0 1-.704-.352 6.293 6.293 0 0 0-5.6-2.72c-5.312 0-7.487 4.16-7.487 10.143 0 5.952 2.176 10.1 7.487 10.1a6.377 6.377 0 0 0 5.664-2.72.746.746 0 0 1 .704-.416.979.979 0 0 1 .96.929 1.025 1.025 0 0 1-.192.544zm16.704 2.943a.9.9 0 0 1-.928-.895v-9.344a5.472 5.472 0 0 0-10.943 0v9.344a.912.912 0 0 1-1.823 0v-21a.912.912 0 0 1 1.823 0v6.815a7.109 7.109 0 0 1 5.472-2.464 7.355 7.355 0 0 1 7.296 7.296v9.344a.893.893 0 0 1-.896.896z"/><use xlink:href="#P"/><path d="M115.026 579.078a.9.9 0 0 1-.928-.895v-9.344a5.472 5.472 0 1 0-10.943 0v9.344a.912.912 0 0 1-1.823 0v-15.2a.912.912 0 0 1 1.823 0v1.023a7.3 7.3 0 0 1 12.768 4.832v9.344a.893.893 0 0 1-.896.896zm28.608-7.23l-3.2 3.23 2.977 2.977a.896.896 0 0 1 .287.672.922.922 0 0 1-.896.928.899.899 0 0 1-.672-.288l-2.976-3.008-1.088 1.088a7.013 7.013 0 0 1-5.024 2.176 6.84 6.84 0 0 1-3.423-12.767l-.608-.608a6.028 6.028 0 0 1 4-10.527c3.743 0 6.176 3.552 6.176 4.256a.951.951 0 0 1-.96.895c-.93 0-2.112-3.327-5.216-3.327a4.207 4.207 0 0 0-4.192 4.191 4.045 4.045 0 0 0 1.44 3.168l8.896 8.896 3.2-3.232a1.042 1.042 0 0 1 .672-.288.969.969 0 0 1 .896.929.836.836 0 0 1-.288.64zm-12.67-3.647a5.025 5.025 0 0 0 2.048 9.599 4.853 4.853 0 0 0 3.52-1.407l1.344-1.376zm42.876 10.878a.874.874 0 0 1-.896-.895v-17.375l-7.615 14.143a.844.844 0 0 1-.736.576.989.989 0 0 1-.863-.576l-7.584-14.143v17.375a.912.912 0 0 1-1.823 0v-21a.928.928 0 0 1 .96-.896.836.836 0 0 1 .768.448l8.48 15.84 8.512-15.84a.867.867 0 0 1 .768-.448.928.928 0 0 1 .96.896v21a.9.9 0 0 1-.928.895z"/><use xlink:href="#P" x="97.247"/><use xlink:href="#Q"/><use xlink:href="#R"/><path d="M244.177 579.078h-14.24a.867.867 0 0 1-.895-.864 1.037 1.037 0 0 1 .224-.64l12.5-19.486h-11.103a.896.896 0 1 1 0-1.792h12.767a.898.898 0 0 1 .769 1.408l-12.575 19.55h12.543a.912.912 0 0 1 0 1.824zm16.766 0a.9.9 0 0 1-.928-.895v-1.024a7.106 7.106 0 0 1-5.472 2.464 7.375 7.375 0 0 1-7.295-7.296v-9.343a.912.912 0 0 1 1.823 0v9.343a5.472 5.472 0 0 0 10.943 0v-9.343a.912.912 0 0 1 1.824 0v15.2a.893.893 0 0 1-.896.896z"/><use xlink:href="#S"/><use xlink:href="#R" x="73.725"/><use xlink:href="#J" x="155.07" y="176.265"/><use xlink:href="#Q" x="116.862"/><use xlink:href="#T"/><use xlink:href="#J" x="202.717" y="176.265"/><use xlink:href="#Q" x="164.509"/><path d="M380.302 586.374c-2.72 0-6.56-1.024-6.56-2.177a1.015 1.015 0 0 1 .928-1.023 11.53 11.53 0 0 1 1.696.768 11.985 11.985 0 0 0 3.936.608c4.096 0 6.208-2.016 6.208-5.95v-2.24a7.639 7.639 0 0 1-6.208 2.72c-5.056 0-8.03-3.584-8.03-8.512 0-4.8 2.88-9.023 8.03-9.023a7.317 7.317 0 0 1 6.208 3.008v-1.535a.912.912 0 0 1 1.823 0V578.6c0 5.087-3.04 7.775-8.03 7.775zm0-23.007c-3.775 0-6.207 3.04-6.207 7.2 0 4.128 2.27 6.688 6.207 6.688s6.208-2.56 6.208-6.687c0-4.16-2.4-7.2-6.208-7.2z"/></g><g fill="#fff"><path d="M63.22 42.382h-9.96v35.1a2.424 2.424 0 0 1-2.52 2.52 2.505 2.505 0 0 1-2.58-2.52v-35.1h-9.84a2.534 2.534 0 0 1-2.64-2.58 2.506 2.506 0 0 1 2.58-2.52h24.96a2.55 2.55 0 1 1 0 5.1zM92.978 80a2.424 2.424 0 0 1-2.52-2.52V60.8a8.55 8.55 0 1 0-17.099 0v16.62a2.551 2.551 0 0 1-2.64 2.64 2.472 2.472 0 0 1-2.52-2.58V39.862a2.58 2.58 0 0 1 5.16-.06v10.38a12.097 12.097 0 0 1 8.52-3.06 13.79 13.79 0 0 1 13.68 13.68v16.62a2.454 2.454 0 0 1-2.58 2.58z"/><use xlink:href="#U"/><path d="M143.918 81.02c-3.3 0-8.82-1.02-11.64-4.5a2.655 2.655 0 0 1 2.16-4.26 2.464 2.464 0 0 1 1.86 1.02c1.86 2.04 4.92 2.64 7.62 2.64 5.4 0 7.14-1.86 7.14-4.56 0-7.68-18.3-2.94-18.3-15.3 0-6.54 6.12-8.94 11.82-8.94 3.24 0 10.86 1.62 10.86 4.98a2.694 2.694 0 0 1-2.52 2.7 3.612 3.612 0 0 1-1.98-.78c-1.62-1.38-3.96-1.8-6.36-1.8-4.98 0-6.72 1.86-6.72 3.84 0 7.14 18.36 2.52 18.36 15.3 0 7.08-5.94 9.66-12.3 9.66z"/><use xlink:href="#U" x="58.859"/><path d="M223.057 61.52h-12.84v15.9a2.58 2.58 0 0 1-5.16.06V39.862a2.491 2.491 0 0 1 2.52-2.58h15.54c5.28 0 12.06 4.14 12.06 12.06a12.099 12.099 0 0 1-12.12 12.179zm0-19.14h-12.84v14.04h12.78a7.02 7.02 0 0 0 .06-14.04z"/><use xlink:href="#U" x="138.118"/><use xlink:href="#V"/><path d="M320.555 81.02a13.13 13.13 0 0 1-9.899-3.96v13.02a2.501 2.501 0 0 1-2.64 2.58 2.472 2.472 0 0 1-2.52-2.58V50.722a2.472 2.472 0 0 1 2.52-2.58 2.501 2.501 0 0 1 2.64 2.58 14.401 14.401 0 0 1 9.899-3.66c9.66 0 15.06 7.92 15.06 16.92 0 9.12-5.4 17.04-15.06 17.04zm0-28.86c-5.94 0-9.9 4.74-9.9 11.82 0 7.2 3.9 11.94 9.9 11.94s9.9-4.68 9.9-11.88c0-7.14-3.9-11.88-9.9-11.88z"/><use xlink:href="#W"/><use xlink:href="#U" x="250.495"/><path d="M411.753 80h-12.42a2.73 2.73 0 0 1-2.64-2.52V39.862a2.693 2.693 0 0 1 2.64-2.58h12.42c12.36 0 16.44 10.2 16.44 21.3 0 11.16-4.08 21.42-16.44 21.42zm0-37.62h-9.9V74.9h9.9c7.74 0 11.28-5.7 11.28-16.32 0-10.44-3.54-16.2-11.28-16.2z"/><use xlink:href="#V" x="161.276"/><path d="M491.55 80a2.424 2.424 0 0 1-2.52-2.52V60.8a8.55 8.55 0 1 0-17.099 0v16.62a2.55 2.55 0 0 1-2.64 2.64 2.472 2.472 0 0 1-2.52-2.58V50.66a2.387 2.387 0 0 1 2.52-2.52 2.509 2.509 0 0 1 2.58 1.98A13.703 13.703 0 0 1 494.13 60.8v16.62a2.454 2.454 0 0 1-2.58 2.58zm37.74 0a5.836 5.836 0 0 1-5.34-3.42 13.748 13.748 0 0 1-10.56 4.44c-9.78 0-15.06-8.04-15.06-16.98s5.4-16.92 15.06-16.92a13.259 13.259 0 0 1 9.899 3.96v-.24a2.476 2.476 0 0 1 2.52-2.7 2.412 2.412 0 0 1 2.64 2.52v23.16a.971.971 0 0 0 .841 1.08 2.55 2.55 0 1 1 0 5.1zm-15.9-27.78c-6 0-9.9 4.68-9.9 11.82 0 7.2 3.9 11.88 9.9 11.88 6.06 0 9.9-4.68 9.9-11.88 0-7.14-3.84-11.82-9.9-11.82zM545.2 80h-1.02c-5.7 0-7.86-3-7.86-7.92V53.24h-1.8a2.55 2.55 0 0 1-.061-5.1h1.8V39.8a2.436 2.436 0 0 1 2.579-2.52 2.39 2.39 0 0 1 2.521 2.52v8.34h3.84a2.487 2.487 0 0 1 2.52 2.52 2.441 2.441 0 0 1-2.52 2.58h-3.84v19.38c0 1.68.6 2.28 2.28 2.28h1.5a2.475 2.475 0 0 1 2.58 2.52 2.441 2.441 0 0 1-2.52 2.58z"/><use xlink:href="#X"/><path d="M612.1 80.9v9a2.516 2.516 0 0 1-2.64 2.64 2.488 2.488 0 0 1-2.521-2.64v-9c-4.02-.48-8.82-2.16-11.7-4.86a2.619 2.619 0 0 1-.84-1.86 2.652 2.652 0 0 1 2.64-2.58c.9 0 1.14.3 2.22 1.14a16.415 16.415 0 0 0 9.96 3.18c7.08 0 10.26-2.58 10.26-7.02 0-12.48-23.94-5.4-23.94-21.72 0-6.54 4.74-10.08 11.4-10.8v-8.52a2.472 2.472 0 0 1 2.521-2.58 2.501 2.501 0 0 1 2.64 2.58v8.52c3.72.48 8.1 2.1 10.5 4.92a2.362 2.362 0 0 1 .66 1.62 2.749 2.749 0 0 1-2.58 2.7c-.9 0-1.38-.42-2.4-1.32a13.183 13.183 0 0 0-8.7-2.94c-6.48 0-8.94 2.58-8.94 5.82 0 11.22 23.94 4.56 23.94 21.72 0 7.8-5.76 11.22-12.48 12zm24.478-.9a2.494 2.494 0 0 1-2.52-2.52V45.32l-4.8 4.68a2.32 2.32 0 0 1-1.68.72 2.802 2.802 0 0 1-2.7-2.64 2.46 2.46 0 0 1 .78-1.8l8.94-8.64a3.314 3.314 0 0 1 2.22-.96c1.68 0 2.4 1.68 2.4 3.06v37.68a2.536 2.536 0 0 1-2.64 2.58zm39.36 0h-16.14a2.73 2.73 0 0 1-2.64-2.52V39.862a2.511 2.511 0 0 1 2.52-2.58h14.88a11.255 11.255 0 0 1 11.219 11.1 10.802 10.802 0 0 1-3.419 7.979 12.411 12.411 0 0 1 6.3 10.919A12.804 12.804 0 0 1 675.927 80zm-1.38-37.62h-12.24V54.5h12.24a6.06 6.06 0 0 0 0-12.12zm1.38 17.22h-13.62v15.3h13.62a7.65 7.65 0 0 0 0-15.3z"/><use xlink:href="#Y"/><use xlink:href="#W" x="363.651"/><use xlink:href="#W" x="374.931"/><use xlink:href="#Y" x="34.198"/><use xlink:href="#V" x="466.188"/><path d="M796.463 80a2.424 2.424 0 0 1-2.52-2.52V60.8a8.55 8.55 0 1 0-17.1 0v16.62a2.55 2.55 0 0 1-2.64 2.64 2.472 2.472 0 0 1-2.52-2.58V50.66a2.387 2.387 0 0 1 2.52-2.52 2.509 2.509 0 0 1 2.58 1.98 13.702 13.702 0 0 1 22.259 10.68v16.62a2.453 2.453 0 0 1-2.579 2.58zm48.057 0h-24.96a2.602 2.602 0 0 1-2.64-2.52V39.862a2.612 2.612 0 0 1 2.64-2.58h24.96a2.425 2.425 0 0 1 2.52 2.52 2.504 2.504 0 0 1-2.52 2.58h-22.44V54.5h15.72a2.561 2.561 0 0 1 2.58 2.58 2.523 2.523 0 0 1-2.58 2.58h-15.72V74.9h22.44a2.471 2.471 0 0 1 2.52 2.58 2.425 2.425 0 0 1-2.52 2.52zm29.338-28.318l-10.92 26.28a2.737 2.737 0 0 1-2.58 2.04 2.904 2.904 0 0 1-2.58-2.04l-10.92-26.28a3.721 3.721 0 0 1-.18-1.08 2.588 2.588 0 0 1 2.64-2.46 2.457 2.457 0 0 1 2.28 1.56l8.76 21 8.76-21a2.584 2.584 0 0 1 4.98.84 2.975 2.975 0 0 1-.24 1.14z"/><use xlink:href="#X" x="326.75"/><path d="M923.898 52.222a8.644 8.644 0 0 0-8.521 8.58v16.62a2.501 2.501 0 0 1-2.64 2.58 2.456 2.456 0 0 1-2.52-2.52v-26.76a2.541 2.541 0 0 1 2.52-2.58 2.463 2.463 0 0 1 2.58 2.04 13.874 13.874 0 0 1 8.58-3.06 2.552 2.552 0 1 1 0 5.1z"/><path d="M953.597 51.742l-16.2 36.838a6.876 6.876 0 0 1-6.6 4.02h-1.92a2.42 2.42 0 0 1-2.52-2.64 2.386 2.386 0 0 1 2.52-2.52h1.86a1.894 1.894 0 0 0 1.979-.96l3.96-8.88-11.7-25.86a2.165 2.165 0 0 1-.301-1.14 2.705 2.705 0 0 1 2.76-2.52 2.309 2.309 0 0 1 2.16 1.56l9.78 21.72 9.54-21.72a2.376 2.376 0 0 1 2.22-1.5 2.659 2.659 0 0 1 2.76 2.46 2.035 2.035 0 0 1-.3 1.14z"/><use xlink:href="#Z"/><use xlink:href="#Z" x="12.958"/><use xlink:href="#Z" x="25.917"/><path d="M52.574 142.747l.738-.554h4.368c.45 0 .655.206.615.615v38.883c-.083.452.102.656.554.615h7.998q.677-.123.554.554v3.015c.04.452-.145.636-.554.554h-21.78c-.452.082-.656-.102-.615-.554v-3.015c-.04-.45.163-.636.615-.554h8.306c.41.04.594-.163.554-.615V148.9q-.062-.738-.615-.123a27.002 27.002 0 0 1-8.429 4.922q-.494.246-.554-.308v-3.138a.596.596 0 0 1 .431-.554 15.465 15.465 0 0 0 7.813-6.952h0z"/><use xlink:href="#O" y="-352.649"/><use xlink:href="#a"/><path d="M143.118 186.43h-7.45a1.638 1.638 0 0 1-1.584-1.512v-22.57a1.616 1.616 0 0 1 1.584-1.548h7.45c7.415 0 9.862 6.12 9.862 12.778 0 6.695-2.447 12.85-9.862 12.85zm0-22.57h-5.94v19.5h5.94c4.644 0 6.767-3.42 6.767-9.8 0-6.263-2.123-9.72-6.767-9.72zm31.03 22.57a1.474 1.474 0 0 1-1.367-.936l-1.908-4.68h-11.986l-1.943 4.68a1.464 1.464 0 0 1-1.332.936 1.591 1.591 0 0 1-1.62-1.512 1.183 1.183 0 0 1 .145-.612l9.25-22.497a1.572 1.572 0 0 1 1.476-1.115 1.635 1.635 0 0 1 1.476 1.115l9.287 22.497a1.702 1.702 0 0 1 .107.612 1.537 1.537 0 0 1-1.584 1.512zm-9.286-20.157l-4.716 11.446h9.43zm26.095-3.206l-7.127 13.282v8.53a1.501 1.501 0 0 1-1.584 1.548 1.452 1.452 0 0 1-1.512-1.512v-8.567l-7.127-13.318a1.355 1.355 0 0 1-.216-.756 1.648 1.648 0 0 1 1.62-1.548 1.47 1.47 0 0 1 1.296.864l5.938 11.087 6.012-11.087a1.455 1.455 0 0 1 1.296-.792 1.593 1.593 0 0 1 1.62 1.512 1.282 1.282 0 0 1-.217.756zm9.722 23.973a13.546 13.546 0 0 1-8.352-2.988 1.44 1.44 0 0 1-.504-1.115 1.56 1.56 0 0 1 1.548-1.548c.54 0 .72.18 1.368.684a9.743 9.743 0 0 0 5.939 1.908c4.283 0 6.155-1.548 6.155-4.212 0-7.487-14.362-3.24-14.362-13.03 0-4.392 3.707-6.587 8.46-6.587 2.483 0 6.047.972 7.8 3.06a1.417 1.417 0 0 1 .396.972 1.677 1.677 0 0 1-1.548 1.62c-.54 0-.828-.252-1.44-.792a7.901 7.901 0 0 0-5.219-1.764c-3.888 0-5.363 1.548-5.363 3.5 0 6.73 14.362 2.735 14.362 13.03 0 5.363-4.5 7.27-9.25 7.27zM68.53 204.798l-5.632 20.96a.886.886 0 0 1-.896.672.851.851 0 0 1-.863-.672l-4.8-17.727-4.768 17.727a.852.852 0 0 1-.864.672.885.885 0 0 1-.896-.672l-5.632-20.96a.875.875 0 0 1-.032-.287.929.929 0 0 1 .928-.929.798.798 0 0 1 .832.704l4.8 17.727 4.768-17.727a.847.847 0 0 1 .864-.64.858.858 0 0 1 .896.64l4.768 17.727 4.8-17.727a.841.841 0 0 1 .832-.704.928.928 0 0 1 .928.929.901.901 0 0 1-.031.287z"/><use xlink:href="#P" x="-11.03" y="-352.648"/><use xlink:href="#Q" x="-108.927" y="-352.649"/><use xlink:href="#Q" x="-99.646" y="-352.649"/><use xlink:href="#J" x="-34.405" y="-176.384"/><path d="M139.018 226.43a.9.9 0 0 1-.928-.896v-9.344a5.472 5.472 0 0 0-10.943 0v9.344a.912.912 0 0 1-1.823 0v-15.2a.912.912 0 0 1 1.823 0v1.023a7.3 7.3 0 0 1 12.768 4.832v9.344a.893.893 0 0 1-.896.896z"/><use xlink:href="#G" x="105.144" y="-176.383"/><path d="M182.185 226.43a.9.9 0 0 1-.928-.896v-1.024a7.106 7.106 0 0 1-5.472 2.464 7.375 7.375 0 0 1-7.295-7.296v-9.343a.912.912 0 0 1 1.823 0v9.343a5.472 5.472 0 0 0 10.943 0v-9.343a.912.912 0 0 1 1.824 0v15.2a.893.893 0 0 1-.896.896z"/><use xlink:href="#b"/><use xlink:href="#b" x="8.577"/><use xlink:href="#J" x="61.625" y="-176.384"/><path d="M227.2 226.43h-.992c-2.527 0-3.775-1.248-3.775-3.744v-11.423H220.8a.912.912 0 0 1 0-1.824h1.632v-4.895a.899.899 0 0 1 .928-.896.873.873 0 0 1 .896.896v4.896h2.944a.912.912 0 0 1 0 1.824h-2.944v11.423c0 1.568.448 1.92 1.952 1.92h.992a.912.912 0 0 1 0 1.824z"/></g><g opacity=".8" fill="#fff"><path d="M49.035 706.086q.492 6.645 7.383 6.952a6.969 6.969 0 0 0 5.229-2.092 8.404 8.404 0 0 0 2.03-5.845v-5.6a8.052 8.052 0 0 0-1.784-5.414 6.612 6.612 0 0 0-5.168-2.215 8.993 8.993 0 0 0-6.091 2.092.702.702 0 0 1-.8.308H46.82q-.678.125-.554-.554v-21.103q-.125-.677.554-.554h19.195q.677-.123.554.554v3.138c.082.452-.103.656-.554.615h-15.01q-.615-.123-.554.554v12.182c0 .37.185.452.554.246a12.976 12.976 0 0 1 6.091-1.415 10.892 10.892 0 0 1 7.998 3.138 11.591 11.591 0 0 1 3.138 8.429v5.6a12.051 12.051 0 0 1-3.507 8.798 12.195 12.195 0 0 1-8.49 3.384 11.428 11.428 0 0 1-8.244-3.261 11.859 11.859 0 0 1-3.384-8.121q-.125-.614.554-.554h3.2q.677-.06.677.738h0zm43.255-31.5a12.111 12.111 0 0 1 3.322 8.429q-.37 7.63-5.3 10.1c-.206.164-.185.37.062.615q6.1 3.507 6.03 10.828a12.863 12.863 0 0 1-3.507 9.105 12.195 12.195 0 0 1-8.675 3.568 11.975 11.975 0 0 1-8.613-3.568 12.854 12.854 0 0 1-3.507-9.105q-.062-7.32 6.03-10.828.37-.37.062-.615-4.923-2.46-5.3-10.1a12.102 12.102 0 0 1 3.322-8.429 10.944 10.944 0 0 1 16.058 0zM84.23 713.1a7.319 7.319 0 0 0 5.599-2.399 8.651 8.651 0 0 0 2.092-6.091 10.025 10.025 0 0 0-2.03-6.583 7.424 7.424 0 0 0-11.259 0 10.025 10.025 0 0 0-2.03 6.583 8.647 8.647 0 0 0 2.092 6.091 7.245 7.245 0 0 0 5.537 2.399h0zm6.9-30.023a8.51 8.51 0 0 0-1.846-5.537 6.612 6.612 0 0 0-10.09 0 8.696 8.696 0 0 0-1.784 5.537q.185 7.752 6.83 8.183 6.705-.43 6.9-8.183zm13.296 9.966c.04.452.225.533.554.246q1.97-2.644 7.444-3.138a11.166 11.166 0 0 1 8.675 3.876 14.44 14.44 0 0 1 3.261 9.536 14.886 14.886 0 0 1-3.384 9.659 11.658 11.658 0 0 1-17.842.062 15.256 15.256 0 0 1-3.322-9.905v-19.32a13.663 13.663 0 0 1 3.322-9.229 11.707 11.707 0 0 1 9.044-3.876 12.475 12.475 0 0 1 7.937 2.707 11.217 11.217 0 0 1 3.938 7.26q.123.554-.615.554h-3.63q-.615 0-.615-.738a8.063 8.063 0 0 0-2.153-3.814 7.079 7.079 0 0 0-4.922-1.6 7.182 7.182 0 0 0-5.66 2.461 9.534 9.534 0 0 0-2.03 6.275zm0 10.644a10.653 10.653 0 0 0 1.969 6.645 7.17 7.17 0 0 0 11.32 0 11.603 11.603 0 0 0 1.969-6.768 11.183 11.183 0 0 0-1.907-6.583 6.735 6.735 0 0 0-5.599-2.584q-7.692.494-7.752 9.3h0zm-50.7 53.033c-7.04 0-9.3-5.92-9.3-11.936 0-5.983 2.27-11.967 9.3-11.967a8.149 8.149 0 0 1 7.104 3.488.646.646 0 0 1 .192.512.959.959 0 0 1-.992.896c-.447 0-.704-.384-1.056-.832a6.208 6.208 0 0 0-5.248-2.239c-4.83 0-7.487 3.712-7.487 10.143 0 4.864 1.536 10.1 7.487 10.1 5.056 0 7.264-3.87 7.488-9.183H57.3a.916.916 0 0 1-.96-.929.9.9 0 0 1 .896-.928H62.1a.89.89 0 0 1 .928.928c0 6.24-2.464 11.936-9.312 11.936z"/><use xlink:href="#M" x="-220.988" y="353.363"/><use xlink:href="#c"/><use xlink:href="#Q" x="-95.573" y="177.098"/><use xlink:href="#d"/><use xlink:href="#J" x="-9.728" y="353.363"/><path d="M164.465 756.72a11.82 11.82 0 0 1-7.647-2.815.838.838 0 0 1-.288-.641.973.973 0 0 1 .928-.928c.385 0 .353.096 1.024.608a10.138 10.138 0 0 0 5.983 1.951c4.032 0 6.368-1.504 6.368-4.384 0-7.583-13.535-3.36-13.535-12.095 0-3.84 3.36-5.6 7.487-5.6 2.304 0 5.535.992 6.976 3.008a.891.891 0 0 1-.769 1.44c-.447 0-.447-.13-.99-.673a7.406 7.406 0 0 0-5.216-1.951c-3.808 0-5.664 1.472-5.664 3.775 0 6.88 13.535 2.88 13.535 12.095 0 4.448-3.903 6.208-8.19 6.208z"/><use xlink:href="#c" x="90.719"/><use xlink:href="#Q" x="-4.865" y="177.098"/><use xlink:href="#c" x="119.134"/><use xlink:href="#N" x="-83.357" y="353.364"/></g><g opacity=".8" fill="#fff"><use xlink:href="#a" x="-54.121" y="706.764"/><path d="M93.152 851.604a13.09 13.09 0 0 1 3.507 9.167v20.795a13.314 13.314 0 0 1-3.507 9.229 12.236 12.236 0 0 1-8.921 3.63 12.373 12.373 0 0 1-8.921-3.63 13.075 13.075 0 0 1-3.445-9.229V860.77a12.857 12.857 0 0 1 3.445-9.167 12.051 12.051 0 0 1 8.921-3.63 11.922 11.922 0 0 1 8.921 3.63zM76.48 860.77v20.795a9.282 9.282 0 0 0 2.092 6.152 7.876 7.876 0 0 0 11.32 0 9.115 9.115 0 0 0 2.153-6.152V860.77a8.878 8.878 0 0 0-2.153-6.091 7.876 7.876 0 0 0-11.32 0 9.038 9.038 0 0 0-2.092 6.091h0zm27.936 9.3c.04.452.225.533.554.246q1.97-2.644 7.444-3.138a11.166 11.166 0 0 1 8.675 3.876 14.44 14.44 0 0 1 3.261 9.536 14.886 14.886 0 0 1-3.384 9.659 11.658 11.658 0 0 1-17.842.062 15.256 15.256 0 0 1-3.322-9.905v-19.318a13.663 13.663 0 0 1 3.322-9.229 11.707 11.707 0 0 1 9.044-3.876 12.475 12.475 0 0 1 7.937 2.707 11.217 11.217 0 0 1 3.938 7.26q.123.554-.615.554h-3.63q-.615 0-.615-.738a8.063 8.063 0 0 0-2.153-3.814 7.079 7.079 0 0 0-4.922-1.6 7.182 7.182 0 0 0-5.66 2.461 9.534 9.534 0 0 0-2.03 6.275zm0 10.644a10.653 10.653 0 0 0 1.969 6.645 7.17 7.17 0 0 0 11.32 0 11.603 11.603 0 0 0 1.969-6.768 11.183 11.183 0 0 0-1.907-6.583 6.735 6.735 0 0 0-5.599-2.584q-7.692.494-7.752 9.3h0z"/><use xlink:href="#I" x="-73.213" y="530.38"/><use xlink:href="#K" x="-98.077" y="530.38"/><use xlink:href="#S" x="-191.358" y="354.106"/><path d="M104.562 933.193a.9.9 0 0 1-.928-.896v-9.344a5.472 5.472 0 1 0-10.943 0v9.344a.912.912 0 0 1-1.823 0v-21a.912.912 0 0 1 1.823 0v6.815a7.109 7.109 0 0 1 5.472-2.464 7.355 7.355 0 0 1 7.296 7.296v9.344a.893.893 0 0 1-.896.896zm21.216 0h-.03a3.312 3.312 0 0 1-3.168-2.496 7.261 7.261 0 0 1-6.208 3.04c-5.216 0-8.03-4.288-8.03-9.056 0-4.83 2.88-9.023 8.03-9.023a7.317 7.317 0 0 1 6.208 3.008V917.1a.902.902 0 0 1 .928-.896.873.873 0 0 1 .896.896v12.895c0 2.048 2.305.77 2.305 2.305a.88.88 0 0 1-.929.896zm-9.407-15.7c-3.775 0-6.207 3.04-6.207 7.2s2.432 7.23 6.207 7.23c3.808 0 6.208-3.07 6.208-7.23s-2.4-7.2-6.208-7.2z"/><use xlink:href="#M" x="-158.013" y="530.37"/><use xlink:href="#H" x="77.473" y="530.381"/><use xlink:href="#G" x="116.734" y="530.38"/><use xlink:href="#H" x="111.008" y="530.381"/><use xlink:href="#c" x="102.879" y="177.017"/><use xlink:href="#c" x="121.376" y="177.017"/><path d="M245.2 933.193a.873.873 0 0 1-.896-.896v-10.752a4.08 4.08 0 0 0-8.16-.031v10.783a.873.873 0 0 1-.896.896.899.899 0 0 1-.928-.896v-10.752a4.064 4.064 0 0 0-8.128-.031v10.783a.912.912 0 0 1-1.823 0v-15.2a.912.912 0 0 1 1.823 0v.19a5.819 5.819 0 0 1 4.064-1.632 5.934 5.934 0 0 1 4.991 2.721 5.906 5.906 0 0 1 10.879 3.136v10.783a.899.899 0 0 1-.928.896z"/><use xlink:href="#T" x="-75.616" y="354.115"/><use xlink:href="#J" x="127.102" y="530.37"/><use xlink:href="#Q" x="88.895" y="354.115"/><use xlink:href="#d" x="184.487" y="177.018"/></g></svg>